<svg xmlns="http://www.w3.org/2000/svg" width="240.066" height="74.695" viewBox="0 0 240.066 74.695"><g id="Group_8" data-name="Group 8" transform="translate(783 -185.506)"><g id="Group_4" data-name="Group 4" transform="translate(-783 185.506)"><path id="Path_1" data-name="Path 1" d="M47.116,20.5,36.988,34.029,18.922,20.5H0l36.289,27.17L56.632,20.5Z" transform="translate(0 -15.839)" fill="#e4c000"></path><path id="Path_2" data-name="Path 2" d="M86.028,212.572,96.16,199.04l18.074,13.532h18.923L96.86,185.4,76.516,212.567l.177.005Z" transform="translate(-59.111 -143.223)" fill="#7bb3e3"></path><path id="Path_3" data-name="Path 3" d="M212.631,0,185.485,36.256,212.631,56.58V47.064l-13.5-10.109,13.5-18.032Z" transform="translate(-143.292 0)" fill="#c1c600"></path><path id="Path_4" data-name="Path 4" d="M20.6,76.567v9.516L34.124,96.208,20.6,114.27v18.923L47.768,96.908Z" transform="translate(-15.914 -59.15)" fill="#8ac299"></path><g id="Group_2" data-name="Group 2" transform="translate(79.801 4.335)"><g id="Group_5" data-name="Group 5"><path id="Path_5" data-name="Path 5" d="M355.117,33.531a2.956,2.956,0,0,0,.9,1.056,3.884,3.884,0,0,0,1.317.6,6.212,6.212,0,0,0,1.565.2,8.1,8.1,0,0,0,1.173-.091,4.073,4.073,0,0,0,1.174-.352,2.559,2.559,0,0,0,.913-.717,1.8,1.8,0,0,0,.365-1.161,1.633,1.633,0,0,0-.483-1.226,3.824,3.824,0,0,0-1.265-.782A12.622,12.622,0,0,0,359,30.505q-.992-.235-2.008-.522a17.709,17.709,0,0,1-2.034-.639,6.958,6.958,0,0,1-1.774-.978,4.6,4.6,0,0,1-1.265-1.5,4.55,4.55,0,0,1-.483-2.178,4.875,4.875,0,0,1,.613-2.491,5.546,5.546,0,0,1,1.6-1.76,6.987,6.987,0,0,1,2.243-1.043,9.558,9.558,0,0,1,2.5-.339,11.852,11.852,0,0,1,2.8.326,7.006,7.006,0,0,1,2.386,1.056,5.35,5.35,0,0,1,1.656,1.865,5.723,5.723,0,0,1,.613,2.752H361.9a3.3,3.3,0,0,0-.352-1.382,2.308,2.308,0,0,0-.8-.861,3.376,3.376,0,0,0-1.135-.443,7,7,0,0,0-1.395-.13,4.807,4.807,0,0,0-.991.1,2.655,2.655,0,0,0-.9.365,2.256,2.256,0,0,0-.665.652,1.751,1.751,0,0,0-.261.991,1.671,1.671,0,0,0,.208.887,1.857,1.857,0,0,0,.821.626,10.445,10.445,0,0,0,1.7.574q1.082.287,2.83.73.522.1,1.447.378a6.959,6.959,0,0,1,1.839.874,5.565,5.565,0,0,1,1.578,1.6,4.564,4.564,0,0,1,.665,2.569,5.7,5.7,0,0,1-.5,2.373,5.157,5.157,0,0,1-1.474,1.891,7.075,7.075,0,0,1-2.425,1.239,11.469,11.469,0,0,1-3.351.443,11.777,11.777,0,0,1-2.987-.378,7.5,7.5,0,0,1-2.556-1.187,5.856,5.856,0,0,1-1.76-2.06,6.152,6.152,0,0,1-.626-2.973h3.964a3.414,3.414,0,0,0,.339,1.591" transform="translate(-350.813 -19.056)" fill="#424242"></path><path id="Path_6" data-name="Path 6" d="M427.325,46.171a6.166,6.166,0,0,1,3.6-3.677,7.7,7.7,0,0,1,2.869-.509,7.807,7.807,0,0,1,2.882.509,6.141,6.141,0,0,1,3.612,3.677,8.279,8.279,0,0,1,.5,2.934,8.17,8.17,0,0,1-.5,2.921,6.336,6.336,0,0,1-1.408,2.23,6.135,6.135,0,0,1-2.2,1.421,7.994,7.994,0,0,1-2.882.5,7.886,7.886,0,0,1-2.869-.5,6.157,6.157,0,0,1-2.191-1.421,6.327,6.327,0,0,1-1.408-2.23,8.166,8.166,0,0,1-.5-2.921,8.275,8.275,0,0,1,.5-2.934m3.364,4.512a4.2,4.2,0,0,0,.535,1.382,2.841,2.841,0,0,0,1,.978,3.063,3.063,0,0,0,1.565.365,3.136,3.136,0,0,0,1.578-.365,2.814,2.814,0,0,0,1.017-.978,4.21,4.21,0,0,0,.535-1.382,7.885,7.885,0,0,0,.157-1.578,8.084,8.084,0,0,0-.157-1.591,4.069,4.069,0,0,0-.535-1.382,2.969,2.969,0,0,0-1.017-.978,3.052,3.052,0,0,0-1.578-.379,2.85,2.85,0,0,0-2.569,1.356,4.056,4.056,0,0,0-.535,1.382,8.1,8.1,0,0,0-.156,1.591,7.9,7.9,0,0,0,.156,1.578" transform="translate(-409.537 -36.769)" fill="#424242"></path><path id="Path_7" data-name="Path 7" d="M507.844,57.076V55.2h-.078a4.166,4.166,0,0,1-1.826,1.7,5.389,5.389,0,0,1-2.3.522,6.48,6.48,0,0,1-2.439-.391,3.518,3.518,0,0,1-1.5-1.108,4.335,4.335,0,0,1-.769-1.747,10.846,10.846,0,0,1-.222-2.282V43.592h3.7v7.615a4.724,4.724,0,0,0,.522,2.491,2.021,2.021,0,0,0,1.852.822,2.567,2.567,0,0,0,2.191-.9,5,5,0,0,0,.678-2.96V43.592h3.7V57.076Z" transform="translate(-465.072 -38.011)" fill="#424242"></path><path id="Path_8" data-name="Path 8" d="M569.859,29.862V32.34h-2.712v6.677a1.814,1.814,0,0,0,.313,1.252,1.814,1.814,0,0,0,1.252.313q.313,0,.6-.026a5.053,5.053,0,0,0,.548-.078v2.869a8.813,8.813,0,0,1-1.043.1q-.574.026-1.122.026a10.81,10.81,0,0,1-1.63-.117,3.845,3.845,0,0,1-1.356-.457,2.415,2.415,0,0,1-.926-.965,3.445,3.445,0,0,1-.339-1.643V32.34H561.2V29.862h2.243V25.82h3.7v4.042Z" transform="translate(-513.342 -24.281)" fill="#424242"></path><path id="Path_9" data-name="Path 9" d="M610.763,21V28.02h.078a4.29,4.29,0,0,1,1.8-1.708,4.861,4.861,0,0,1,2.139-.535,6.293,6.293,0,0,1,2.438.4,3.62,3.62,0,0,1,1.5,1.121,4.349,4.349,0,0,1,.769,1.747,10.9,10.9,0,0,1,.221,2.282v8.293h-3.7V32.01a4.726,4.726,0,0,0-.522-2.491,2.02,2.02,0,0,0-1.852-.822,2.566,2.566,0,0,0-2.191.9,5,5,0,0,0-.678,2.96v7.068h-3.7V21Z" transform="translate(-548.77 -20.561)" fill="#424242"></path><path id="Path_10" data-name="Path 10" d="M360.071,122v7.146h7.537V122H371.7v18.621h-4.095v-8.033h-7.537v8.033h-4.095V122Z" transform="translate(-354.802 -98.586)" fill="#424242"></path><path id="Path_11" data-name="Path 11" d="M437.109,147.5a4.3,4.3,0,0,1,.652-2.165,4.434,4.434,0,0,1,1.46-1.382,6.363,6.363,0,0,1,2-.743,11.367,11.367,0,0,1,2.23-.222,15.171,15.171,0,0,1,2.06.144,6.318,6.318,0,0,1,1.9.561,3.754,3.754,0,0,1,1.408,1.161,3.243,3.243,0,0,1,.548,1.969v7.016a14.082,14.082,0,0,0,.1,1.748,3.149,3.149,0,0,0,.365,1.252h-3.756a5.209,5.209,0,0,1-.17-.639,5.546,5.546,0,0,1-.091-.665,4.827,4.827,0,0,1-2.086,1.278,8.384,8.384,0,0,1-2.452.365,6.63,6.63,0,0,1-1.8-.235,4.12,4.12,0,0,1-1.46-.73,3.4,3.4,0,0,1-.978-1.252,4.232,4.232,0,0,1-.352-1.8,3.927,3.927,0,0,1,.4-1.891,3.38,3.38,0,0,1,1.043-1.187,4.681,4.681,0,0,1,1.461-.665,15.645,15.645,0,0,1,1.656-.352q.834-.13,1.643-.209a9.894,9.894,0,0,0,1.434-.235,2.5,2.5,0,0,0,.991-.457,1,1,0,0,0,.339-.874,1.968,1.968,0,0,0-.2-.952,1.442,1.442,0,0,0-.522-.548,2.055,2.055,0,0,0-.756-.261,6.224,6.224,0,0,0-.926-.065,2.811,2.811,0,0,0-1.721.47,2.094,2.094,0,0,0-.73,1.565Zm8.554,2.739a1.655,1.655,0,0,1-.587.326,5.987,5.987,0,0,1-.756.2q-.405.078-.848.131t-.887.13a6.709,6.709,0,0,0-.822.209,2.432,2.432,0,0,0-.7.352,1.67,1.67,0,0,0-.482.561,1.8,1.8,0,0,0-.183.861,1.737,1.737,0,0,0,.183.834,1.4,1.4,0,0,0,.5.535,2.1,2.1,0,0,0,.73.274,4.666,4.666,0,0,0,.861.078,3.271,3.271,0,0,0,1.7-.365,2.448,2.448,0,0,0,.887-.874,2.8,2.8,0,0,0,.352-1.03,7.18,7.18,0,0,0,.065-.835Z" transform="translate(-417.157 -114.794)" fill="#424242"></path><path id="Path_12" data-name="Path 12" d="M508.977,143.351v1.825h.052a5.273,5.273,0,0,1,1.76-1.617,4.772,4.772,0,0,1,2.36-.574,5.431,5.431,0,0,1,2.334.5,3.279,3.279,0,0,1,1.6,1.747,5.742,5.742,0,0,1,1.63-1.565,4.335,4.335,0,0,1,2.439-.678,7.193,7.193,0,0,1,1.982.261,4,4,0,0,1,1.565.834,3.833,3.833,0,0,1,1.017,1.5,6.08,6.08,0,0,1,.365,2.23v9.024h-3.7v-7.642q0-.678-.052-1.278a2.717,2.717,0,0,0-.287-1.043,1.738,1.738,0,0,0-.691-.7,2.5,2.5,0,0,0-1.239-.261,2.373,2.373,0,0,0-1.265.3,2.174,2.174,0,0,0-.756.783,3.133,3.133,0,0,0-.365,1.1,8.338,8.338,0,0,0-.091,1.239v7.511h-3.7v-7.563q0-.6-.026-1.186a3.333,3.333,0,0,0-.222-1.083,1.667,1.667,0,0,0-.652-.8,2.464,2.464,0,0,0-1.343-.3,2.773,2.773,0,0,0-.691.117,2.29,2.29,0,0,0-.834.443,2.587,2.587,0,0,0-.691.939,3.807,3.807,0,0,0-.287,1.6v7.824h-3.7V143.351Z" transform="translate(-470.299 -114.795)" fill="#424242"></path><path id="Path_13" data-name="Path 13" d="M612.419,143.351v1.721h.052a4.076,4.076,0,0,1,1.722-1.591,5.286,5.286,0,0,1,2.295-.5,5.845,5.845,0,0,1,2.739.6,5.667,5.667,0,0,1,1.9,1.591,6.729,6.729,0,0,1,1.121,2.308,10.252,10.252,0,0,1,.365,2.752,9.262,9.262,0,0,1-.365,2.608,6.634,6.634,0,0,1-1.108,2.217,5.48,5.48,0,0,1-1.851,1.539,5.574,5.574,0,0,1-2.6.574,5.249,5.249,0,0,1-2.308-.509,4.364,4.364,0,0,1-1.734-1.5H612.6v6.39h-3.7v-18.2Zm4.812,10.693a2.969,2.969,0,0,0,.991-.952,3.923,3.923,0,0,0,.535-1.369,8.1,8.1,0,0,0,.156-1.591,7.486,7.486,0,0,0-.17-1.59,4.248,4.248,0,0,0-.56-1.4,3.131,3.131,0,0,0-1-.991,2.807,2.807,0,0,0-1.5-.379,2.855,2.855,0,0,0-1.526.379,3.043,3.043,0,0,0-.991.978,4.059,4.059,0,0,0-.534,1.382,8.228,8.228,0,0,0-.157,1.617,7.48,7.48,0,0,0,.169,1.591,4.1,4.1,0,0,0,.548,1.369,3.161,3.161,0,0,0,4.042.952" transform="translate(-550.19 -114.795)" fill="#424242"></path><path id="Path_14" data-name="Path 14" d="M679.852,153.483a2.161,2.161,0,0,0,.639.7,2.738,2.738,0,0,0,.9.4,4.215,4.215,0,0,0,1.056.13,3.957,3.957,0,0,0,.822-.091,2.8,2.8,0,0,0,.782-.287,1.776,1.776,0,0,0,.587-.522,1.368,1.368,0,0,0,.235-.821q0-.835-1.109-1.252a22.208,22.208,0,0,0-3.09-.834q-.809-.182-1.578-.43a5.378,5.378,0,0,1-1.369-.652,3.162,3.162,0,0,1-.965-1.017,2.88,2.88,0,0,1-.365-1.5,4.059,4.059,0,0,1,.508-2.139,3.75,3.75,0,0,1,1.343-1.317,5.9,5.9,0,0,1,1.878-.678,11.585,11.585,0,0,1,2.139-.2,10.692,10.692,0,0,1,2.126.209,5.634,5.634,0,0,1,1.839.7,4.23,4.23,0,0,1,1.343,1.317,4.43,4.43,0,0,1,.639,2.073H684.69a1.621,1.621,0,0,0-.808-1.447,3.7,3.7,0,0,0-1.721-.378,6.376,6.376,0,0,0-.678.039,2.256,2.256,0,0,0-.665.169,1.371,1.371,0,0,0-.509.378,1,1,0,0,0-.209.665,1.015,1.015,0,0,0,.365.808,2.819,2.819,0,0,0,.952.509,11.876,11.876,0,0,0,1.343.352q.756.157,1.539.339a15.742,15.742,0,0,1,1.578.443,5.209,5.209,0,0,1,1.369.691,3.351,3.351,0,0,1,.965,1.069,3.142,3.142,0,0,1,.365,1.578,4.095,4.095,0,0,1-1.93,3.677,5.708,5.708,0,0,1-1.969.769,11.507,11.507,0,0,1-2.256.222,11.172,11.172,0,0,1-2.3-.235,6.053,6.053,0,0,1-1.995-.782,4.472,4.472,0,0,1-1.434-1.447,4.528,4.528,0,0,1-.613-2.256H679.6a2.027,2.027,0,0,0,.248,1.03" transform="translate(-602.093 -114.795)" fill="#424242"></path><path id="Path_15" data-name="Path 15" d="M744.22,122v7.016h.078a4.288,4.288,0,0,1,1.8-1.708,4.861,4.861,0,0,1,2.139-.535,6.293,6.293,0,0,1,2.438.4,3.621,3.621,0,0,1,1.5,1.121,4.35,4.35,0,0,1,.769,1.747,10.9,10.9,0,0,1,.222,2.282v8.293h-3.7V133.01a4.726,4.726,0,0,0-.522-2.491,2.02,2.02,0,0,0-1.852-.822,2.566,2.566,0,0,0-2.191.9,5,5,0,0,0-.678,2.96v7.068h-3.7V122Z" transform="translate(-651.869 -98.586)" fill="#424242"></path><path id="Path_16" data-name="Path 16" d="M808.962,122h3.7v3.052h-3.7Zm3.7,18.621h-3.7V127.142h3.7Z" transform="translate(-704.745 -98.586)" fill="#424242"></path><path id="Path_17" data-name="Path 17" d="M841.6,143.351v2.5h.052a4.55,4.55,0,0,1,.7-1.161,4.612,4.612,0,0,1,1.017-.913,4.987,4.987,0,0,1,1.226-.587,4.424,4.424,0,0,1,1.356-.209,2.894,2.894,0,0,1,.809.13v3.443q-.261-.052-.626-.091a6.6,6.6,0,0,0-.7-.039,3.947,3.947,0,0,0-1.721.339,2.984,2.984,0,0,0-1.134.926,3.716,3.716,0,0,0-.613,1.369,7.458,7.458,0,0,0-.182,1.7v6.077h-3.7V143.351Z" transform="translate(-727.242 -114.795)" fill="#424242"></path><path id="Path_18" data-name="Path 18" d="M882.371,153.6a3.8,3.8,0,0,0,4.329.248,2.327,2.327,0,0,0,.991-1.186h3.26a6.19,6.19,0,0,1-2.4,3.469,7.065,7.065,0,0,1-3.912,1.043,7.7,7.7,0,0,1-2.869-.508,5.961,5.961,0,0,1-2.165-1.448,6.509,6.509,0,0,1-1.369-2.243,8.2,8.2,0,0,1-.483-2.869,7.865,7.865,0,0,1,.5-2.817,6.52,6.52,0,0,1,3.586-3.756,6.983,6.983,0,0,1,2.8-.548,6.413,6.413,0,0,1,3,.665,5.992,5.992,0,0,1,2.1,1.787,7.345,7.345,0,0,1,1.187,2.556,9.541,9.541,0,0,1,.261,3h-9.728a3.74,3.74,0,0,0,.913,2.608m4.186-7.094a2.6,2.6,0,0,0-2.021-.73,3.223,3.223,0,0,0-1.473.3,2.811,2.811,0,0,0-.939.743,2.728,2.728,0,0,0-.5.939,4.206,4.206,0,0,0-.17.887h6.025a4.285,4.285,0,0,0-.926-2.138" transform="translate(-757.889 -114.794)" fill="#424242"></path><path id="Path_19" data-name="Path 19" d="M366.153,225.392a5.262,5.262,0,0,0-1.3-1.421,5.82,5.82,0,0,0-1.7-.874,6.271,6.271,0,0,0-1.943-.3,6.715,6.715,0,0,0-3.182.7,6.3,6.3,0,0,0-2.178,1.865,8.037,8.037,0,0,0-1.252,2.621,11.287,11.287,0,0,0,0,5.986,8.013,8.013,0,0,0,1.252,2.634,6.3,6.3,0,0,0,2.178,1.865,6.715,6.715,0,0,0,3.182.7,5.661,5.661,0,0,0,2.347-.47,5.564,5.564,0,0,0,1.8-1.278,6.557,6.557,0,0,0,1.226-1.891,7.871,7.871,0,0,0,.6-2.334h1.774a10.043,10.043,0,0,1-.808,3.1,7.616,7.616,0,0,1-1.617,2.348,6.874,6.874,0,0,1-2.334,1.487,8.2,8.2,0,0,1-2.986.522,8.794,8.794,0,0,1-3.847-.8,7.98,7.98,0,0,1-2.751-2.126,9.029,9.029,0,0,1-1.643-3.077,12.618,12.618,0,0,1,0-7.355,9.18,9.18,0,0,1,1.643-3.091,7.916,7.916,0,0,1,2.751-2.139,9.321,9.321,0,0,1,6.442-.4,7.524,7.524,0,0,1,2.3,1.161,6.771,6.771,0,0,1,1.722,1.891,6.37,6.37,0,0,1,.874,2.582h-1.774a5.969,5.969,0,0,0-.769-1.917" transform="translate(-352.056 -175.282)" fill="#424242"></path><path id="Path_20" data-name="Path 20" d="M441.768,244.559a5.946,5.946,0,0,1,2,1.539,6.67,6.67,0,0,1,1.226,2.256,9.283,9.283,0,0,1,0,5.5,6.665,6.665,0,0,1-1.226,2.256,5.8,5.8,0,0,1-2,1.526,6.9,6.9,0,0,1-5.451,0,5.784,5.784,0,0,1-2-1.526,6.653,6.653,0,0,1-1.226-2.256,9.283,9.283,0,0,1,0-5.5,6.658,6.658,0,0,1,1.226-2.256,5.935,5.935,0,0,1,2-1.539,6.758,6.758,0,0,1,5.451,0m-4.786,1.3a4.526,4.526,0,0,0-1.474,1.3,5.921,5.921,0,0,0-.887,1.839,7.5,7.5,0,0,0,0,4.2,5.906,5.906,0,0,0,.887,1.839,4.515,4.515,0,0,0,1.474,1.3,4.529,4.529,0,0,0,4.121,0,4.518,4.518,0,0,0,1.474-1.3,5.911,5.911,0,0,0,.886-1.839,7.488,7.488,0,0,0,0-4.2,5.926,5.926,0,0,0-.886-1.839,4.53,4.53,0,0,0-1.474-1.3,4.532,4.532,0,0,0-4.121,0" transform="translate(-414.057 -192.819)" fill="#424242"></path><rect id="Rectangle_9" data-name="Rectangle 9" width="1.643" height="18.621" transform="translate(33.827 46.393)" fill="#424242"></rect><rect id="Rectangle_10" data-name="Rectangle 10" width="1.643" height="18.621" transform="translate(38.652 46.393)" fill="#424242"></rect><path id="Path_21" data-name="Path 21" d="M540.739,253.387a5.043,5.043,0,0,0,.8,1.708,4.538,4.538,0,0,0,1.382,1.252,3.862,3.862,0,0,0,2.008.5,4,4,0,0,0,2.817-.939,4.942,4.942,0,0,0,1.408-2.5h1.643a6.565,6.565,0,0,1-1.917,3.547,5.717,5.717,0,0,1-3.951,1.252,6.267,6.267,0,0,1-2.752-.561,5.06,5.06,0,0,1-1.891-1.539,6.689,6.689,0,0,1-1.082-2.269,10.317,10.317,0,0,1-.352-2.725,9.779,9.779,0,0,1,.352-2.608,7,7,0,0,1,1.082-2.282,5.432,5.432,0,0,1,1.891-1.617,5.819,5.819,0,0,1,2.752-.613,5.321,5.321,0,0,1,4.629,2.36,7.078,7.078,0,0,1,1.031,2.426,10.648,10.648,0,0,1,.261,2.778H540.491a7.276,7.276,0,0,0,.248,1.839m8.137-5.021a4.927,4.927,0,0,0-.848-1.526,4.2,4.2,0,0,0-1.33-1.069,3.809,3.809,0,0,0-1.773-.4,3.867,3.867,0,0,0-1.8.4,4.209,4.209,0,0,0-1.33,1.069,5.333,5.333,0,0,0-.874,1.539,7.52,7.52,0,0,0-.43,1.786H549.2a5.95,5.95,0,0,0-.326-1.8" transform="translate(-496.075 -192.819)" fill="#424242"></path><path id="Path_22" data-name="Path 22" d="M610.076,259.426a5.24,5.24,0,0,1-1.03,2.034,4.5,4.5,0,0,1-1.839,1.278,7.657,7.657,0,0,1-2.778.443,8.346,8.346,0,0,1-1.982-.235,5.637,5.637,0,0,1-1.734-.73,4.322,4.322,0,0,1-1.278-1.265,3.777,3.777,0,0,1-.587-1.839h1.643a2.916,2.916,0,0,0,.508,1.265,3.043,3.043,0,0,0,.913.822,4.058,4.058,0,0,0,1.187.456,6.188,6.188,0,0,0,1.33.143,3.945,3.945,0,0,0,3.312-1.3,6,6,0,0,0,1.017-3.756v-1.826h-.052a4.805,4.805,0,0,1-1.682,2.008,4.49,4.49,0,0,1-2.595.756,6.5,6.5,0,0,1-2.764-.535,5.132,5.132,0,0,1-1.891-1.474,6.009,6.009,0,0,1-1.082-2.2,10.382,10.382,0,0,1-.339-2.7,8.383,8.383,0,0,1,.4-2.621,6.5,6.5,0,0,1,1.174-2.165,5.473,5.473,0,0,1,1.9-1.461,6.025,6.025,0,0,1,2.6-.535,4.725,4.725,0,0,1,1.421.209,4.5,4.5,0,0,1,1.213.587,5.225,5.225,0,0,1,.978.874,3.992,3.992,0,0,1,.665,1.043h.052v-2.321H610.4v12.362a10.249,10.249,0,0,1-.326,2.686m-3.769-3.586a4.282,4.282,0,0,0,1.356-1.2,5.28,5.28,0,0,0,.821-1.708,7.223,7.223,0,0,0,.274-1.982,8.569,8.569,0,0,0-.235-1.982,5.724,5.724,0,0,0-.756-1.8,4.1,4.1,0,0,0-1.343-1.3,3.8,3.8,0,0,0-2-.5,3.947,3.947,0,0,0-2.008.483,4.282,4.282,0,0,0-1.382,1.265,5.293,5.293,0,0,0-.8,1.787,8.5,8.5,0,0,0-.248,2.047,7.564,7.564,0,0,0,.261,1.982,5.084,5.084,0,0,0,.809,1.708,4.188,4.188,0,0,0,1.382,1.2,4.071,4.071,0,0,0,1.982.456,3.755,3.755,0,0,0,1.878-.456" transform="translate(-542.044 -192.82)" fill="#424242"></path><path id="Path_23" data-name="Path 23" d="M663.991,253.387a5.048,5.048,0,0,0,.8,1.708,4.541,4.541,0,0,0,1.382,1.252,3.862,3.862,0,0,0,2.008.5,4,4,0,0,0,2.817-.939,4.942,4.942,0,0,0,1.408-2.5h1.643a6.566,6.566,0,0,1-1.917,3.547,5.717,5.717,0,0,1-3.951,1.252,6.266,6.266,0,0,1-2.752-.561,5.06,5.06,0,0,1-1.891-1.539,6.687,6.687,0,0,1-1.082-2.269,10.312,10.312,0,0,1-.352-2.725,9.774,9.774,0,0,1,.352-2.608,7,7,0,0,1,1.082-2.282,5.433,5.433,0,0,1,1.891-1.617,5.819,5.819,0,0,1,2.752-.613,5.321,5.321,0,0,1,4.629,2.36,7.085,7.085,0,0,1,1.03,2.426,10.645,10.645,0,0,1,.261,2.778H663.743a7.273,7.273,0,0,0,.248,1.839m8.137-5.021a4.928,4.928,0,0,0-.848-1.526,4.2,4.2,0,0,0-1.33-1.069,3.809,3.809,0,0,0-1.773-.4,3.867,3.867,0,0,0-1.8.4,4.207,4.207,0,0,0-1.33,1.069,5.326,5.326,0,0,0-.874,1.539,7.515,7.515,0,0,0-.43,1.786h8.711a5.958,5.958,0,0,0-.326-1.8" transform="translate(-591.29 -192.819)" fill="#424242"></path><path id="Path_24" data-name="Path 24" d="M769.454,240.3l-.235-3.391h-.052a6.3,6.3,0,0,1-2.686,2.882,6.7,6.7,0,0,1-1.787.665,9.167,9.167,0,0,1-1.969.209,8.79,8.79,0,0,1-3.847-.8,7.981,7.981,0,0,1-2.752-2.126,9.043,9.043,0,0,1-1.643-3.077,12.617,12.617,0,0,1,0-7.355,9.192,9.192,0,0,1,1.643-3.091,7.917,7.917,0,0,1,2.752-2.138,8.787,8.787,0,0,1,3.847-.8,9.572,9.572,0,0,1,2.765.391,6.969,6.969,0,0,1,4.042,3.1,7.483,7.483,0,0,1,.965,2.686h-1.773a4.189,4.189,0,0,0-.535-1.63,5.676,5.676,0,0,0-1.226-1.5,6.317,6.317,0,0,0-4.238-1.539,6.714,6.714,0,0,0-3.182.7,6.307,6.307,0,0,0-2.178,1.865,8.035,8.035,0,0,0-1.252,2.621,11.278,11.278,0,0,0,0,5.985,8.007,8.007,0,0,0,1.252,2.634,6.3,6.3,0,0,0,2.178,1.865,6.717,6.717,0,0,0,3.182.7,7.061,7.061,0,0,0,2.752-.509,5.741,5.741,0,0,0,2.047-1.421,5.956,5.956,0,0,0,1.252-2.165,8.167,8.167,0,0,0,.391-2.738h-6.338v-1.513h7.9V240.3Z" transform="translate(-662.236 -175.282)" fill="#424242"></path><path id="Path_25" data-name="Path 25" d="M842.929,245.063v3.156h.052a5.165,5.165,0,0,1,1.943-2.53,5.089,5.089,0,0,1,3.143-.809v1.643a4.961,4.961,0,0,0-2.034.3,4.581,4.581,0,0,0-1.578,1,4.533,4.533,0,0,0-1.03,1.552,5.178,5.178,0,0,0-.365,1.969v7.172h-1.643V245.063Z" transform="translate(-729.817 -193.507)" fill="#424242"></path><path id="Path_26" data-name="Path 26" d="M881.576,244.559a5.947,5.947,0,0,1,2,1.539,6.668,6.668,0,0,1,1.226,2.256,9.282,9.282,0,0,1,0,5.5,6.663,6.663,0,0,1-1.226,2.256,5.8,5.8,0,0,1-2,1.526,6.9,6.9,0,0,1-5.451,0,5.785,5.785,0,0,1-2-1.526,6.653,6.653,0,0,1-1.226-2.256,9.285,9.285,0,0,1,0-5.5,6.658,6.658,0,0,1,1.226-2.256,5.936,5.936,0,0,1,2-1.539,6.758,6.758,0,0,1,5.451,0m-4.786,1.3a4.527,4.527,0,0,0-1.474,1.3,5.92,5.92,0,0,0-.887,1.839,7.5,7.5,0,0,0,0,4.2,5.9,5.9,0,0,0,.887,1.839,4.516,4.516,0,0,0,1.474,1.3,4.529,4.529,0,0,0,4.121,0,4.519,4.519,0,0,0,1.474-1.3,5.909,5.909,0,0,0,.886-1.839,7.489,7.489,0,0,0,0-4.2,5.925,5.925,0,0,0-.886-1.839,4.531,4.531,0,0,0-1.474-1.3,4.532,4.532,0,0,0-4.121,0" transform="translate(-753.82 -192.819)" fill="#424242"></path><path id="Path_27" data-name="Path 27" d="M948.515,259.163v-2.426h-.052a4.663,4.663,0,0,1-1.891,2.073,5.393,5.393,0,0,1-2.751.717,5.988,5.988,0,0,1-2.178-.352,3.629,3.629,0,0,1-1.461-1,4.066,4.066,0,0,1-.821-1.591,7.994,7.994,0,0,1-.261-2.138V245.7h1.643v8.763a4.378,4.378,0,0,0,.848,2.765,4.238,4.238,0,0,0,4.577.482,3.879,3.879,0,0,0,1.252-1.213,5.474,5.474,0,0,0,.73-1.734,8.526,8.526,0,0,0,.235-2V245.7h1.643v13.458Z" transform="translate(-805.28 -194.148)" fill="#424242"></path><path id="Path_28" data-name="Path 28" d="M1002.294,244.376v2.556h.052a4.4,4.4,0,0,1,1.865-2.178,5.622,5.622,0,0,1,2.934-.77,5.856,5.856,0,0,1,2.673.574,5.489,5.489,0,0,1,1.891,1.552,6.61,6.61,0,0,1,1.122,2.269,10.351,10.351,0,0,1,0,5.451,6.609,6.609,0,0,1-1.122,2.269,5.351,5.351,0,0,1-1.891,1.539,6.381,6.381,0,0,1-4.134.378,5.16,5.16,0,0,1-1.356-.548,4.456,4.456,0,0,1-1.108-.913,3.871,3.871,0,0,1-.743-1.278h-.052v7.511h-1.643V244.376Zm9.011,4.655a5.752,5.752,0,0,0-.782-1.839,4.316,4.316,0,0,0-1.369-1.317,3.789,3.789,0,0,0-2.008-.508,4.926,4.926,0,0,0-2.269.469,3.952,3.952,0,0,0-1.461,1.252,4.929,4.929,0,0,0-.769,1.826,10.5,10.5,0,0,0-.222,2.191,8.808,8.808,0,0,0,.248,2.073,5.4,5.4,0,0,0,.809,1.839,4.351,4.351,0,0,0,1.46,1.317,4.418,4.418,0,0,0,2.2.509,3.787,3.787,0,0,0,2.008-.509,4.312,4.312,0,0,0,1.369-1.317,5.743,5.743,0,0,0,.782-1.839,8.8,8.8,0,0,0,0-4.147" transform="translate(-852.93 -192.819)" fill="#424242"></path></g></g></g></g></svg>