<svg xmlns="http://www.w3.org/2000/svg" width="286" height="88.988" viewBox="0 0 286 88.988"><g id="Group_29" data-name="Group 29" transform="translate(783 -185.506)"><g id="Group_4" data-name="Group 4" transform="translate(-783 185.506)"><path id="Path_1" data-name="Path 1" d="M56.131,20.5,44.066,36.617,22.543,20.5H0L43.232,52.872,67.468,20.5Z" transform="translate(0 -14.946)" fill="#fff"></path><path id="Path_2" data-name="Path 2" d="M87.848,217.772l12.071-16.122,21.532,16.122h22.543L100.753,185.4l-24.237,32.37.211.006Z" transform="translate(-55.781 -135.154)" fill="#fff"></path><path id="Path_3" data-name="Path 3" d="M217.825,0,185.485,43.193l32.339,24.213V56.069L201.74,44.026l16.085-21.483Z" transform="translate(-135.219 0)" fill="#fff"></path><path id="Path_4" data-name="Path 4" d="M20.6,76.567V87.9L36.711,99.966,20.6,121.484v22.543L52.966,100.8Z" transform="translate(-15.018 -55.817)" fill="#fff"></path><g id="Group_2" data-name="Group 2" transform="translate(0)"><g id="Group_5" data-name="Group 5"><path id="Path_5" data-name="Path 5" d="M355.941,36.3a3.521,3.521,0,0,0,1.072,1.258,4.627,4.627,0,0,0,1.569.715,7.4,7.4,0,0,0,1.864.233,9.654,9.654,0,0,0,1.4-.109,4.852,4.852,0,0,0,1.4-.42,3.049,3.049,0,0,0,1.088-.854,2.146,2.146,0,0,0,.435-1.383,1.946,1.946,0,0,0-.575-1.46,4.556,4.556,0,0,0-1.507-.932,15.035,15.035,0,0,0-2.112-.653q-1.181-.28-2.392-.621a21.1,21.1,0,0,1-2.424-.761,8.29,8.29,0,0,1-2.113-1.165,5.484,5.484,0,0,1-1.507-1.786,5.421,5.421,0,0,1-.575-2.595,5.808,5.808,0,0,1,.73-2.967,6.608,6.608,0,0,1,1.911-2.1,8.325,8.325,0,0,1,2.672-1.243,11.387,11.387,0,0,1,2.983-.4,14.119,14.119,0,0,1,3.34.388,8.345,8.345,0,0,1,2.843,1.258,6.374,6.374,0,0,1,1.973,2.222,6.818,6.818,0,0,1,.73,3.278h-4.722a3.931,3.931,0,0,0-.42-1.647,2.749,2.749,0,0,0-.947-1.025A4.023,4.023,0,0,0,361.3,23a8.344,8.344,0,0,0-1.662-.155,5.728,5.728,0,0,0-1.181.124,3.163,3.163,0,0,0-1.072.435,2.687,2.687,0,0,0-.792.777,2.085,2.085,0,0,0-.311,1.181,1.992,1.992,0,0,0,.248,1.056,2.212,2.212,0,0,0,.979.746,12.445,12.445,0,0,0,2.02.683q1.289.342,3.371.87.622.125,1.724.451a8.289,8.289,0,0,1,2.191,1.041,6.63,6.63,0,0,1,1.879,1.911,5.437,5.437,0,0,1,.792,3.061,6.784,6.784,0,0,1-.59,2.827,6.144,6.144,0,0,1-1.756,2.253,8.429,8.429,0,0,1-2.889,1.476,13.664,13.664,0,0,1-3.992.528,14.031,14.031,0,0,1-3.558-.45,8.938,8.938,0,0,1-3.045-1.414,6.975,6.975,0,0,1-2.1-2.454,7.329,7.329,0,0,1-.746-3.542h4.723a4.067,4.067,0,0,0,.4,1.9" transform="translate(-255.743 -13.892)" fill="#fff"></path><path id="Path_6" data-name="Path 6" d="M427.419,46.972a7.346,7.346,0,0,1,4.288-4.381,9.175,9.175,0,0,1,3.418-.606,9.3,9.3,0,0,1,3.433.606,7.316,7.316,0,0,1,4.3,4.381,9.863,9.863,0,0,1,.591,3.5,9.734,9.734,0,0,1-.591,3.48,7.548,7.548,0,0,1-1.678,2.657,7.309,7.309,0,0,1-2.625,1.693,9.523,9.523,0,0,1-3.433.591,9.394,9.394,0,0,1-3.418-.591A7.335,7.335,0,0,1,429.1,56.6a7.538,7.538,0,0,1-1.678-2.657,9.728,9.728,0,0,1-.59-3.48,9.858,9.858,0,0,1,.59-3.5m4.008,5.375a5,5,0,0,0,.637,1.647,3.386,3.386,0,0,0,1.2,1.165,3.65,3.65,0,0,0,1.864.435,3.736,3.736,0,0,0,1.88-.435,3.353,3.353,0,0,0,1.212-1.165,5.015,5.015,0,0,0,.637-1.647,9.4,9.4,0,0,0,.186-1.88,9.633,9.633,0,0,0-.186-1.9,4.848,4.848,0,0,0-.637-1.647A3.537,3.537,0,0,0,437,45.761a3.636,3.636,0,0,0-1.88-.451,3.4,3.4,0,0,0-3.06,1.616,4.831,4.831,0,0,0-.637,1.647,9.654,9.654,0,0,0-.186,1.9,9.415,9.415,0,0,0,.186,1.88" transform="translate(-311.159 -30.607)" fill="#fff"></path><path id="Path_7" data-name="Path 7" d="M509.591,59.655V57.418H509.5a4.963,4.963,0,0,1-2.175,2.019,6.42,6.42,0,0,1-2.734.622,7.72,7.72,0,0,1-2.905-.466,4.191,4.191,0,0,1-1.787-1.321,5.165,5.165,0,0,1-.916-2.082,12.92,12.92,0,0,1-.264-2.719v-9.88h4.412v9.072a5.627,5.627,0,0,0,.621,2.967,2.407,2.407,0,0,0,2.206.979,3.058,3.058,0,0,0,2.61-1.072,5.963,5.963,0,0,0,.808-3.527v-8.42h4.412V59.655Z" transform="translate(-363.565 -31.779)" fill="#fff"></path><path id="Path_8" data-name="Path 8" d="M571.516,30.636v2.952h-3.231v7.954a2.161,2.161,0,0,0,.373,1.492,2.16,2.16,0,0,0,1.492.373q.373,0,.715-.031a6.022,6.022,0,0,0,.653-.093V46.7a10.5,10.5,0,0,1-1.243.124q-.684.03-1.336.031a12.88,12.88,0,0,1-1.942-.14,4.58,4.58,0,0,1-1.616-.544,2.877,2.877,0,0,1-1.1-1.15,4.1,4.1,0,0,1-.4-1.957V33.588H561.2V30.636h2.672V25.82h4.412v4.816Z" transform="translate(-409.116 -18.823)" fill="#fff"></path><path id="Path_9" data-name="Path 9" d="M611.472,21v8.358h.093a5.11,5.11,0,0,1,2.144-2.035,5.791,5.791,0,0,1,2.548-.637,7.5,7.5,0,0,1,2.905.482,4.313,4.313,0,0,1,1.787,1.336,5.182,5.182,0,0,1,.917,2.082,12.98,12.98,0,0,1,.264,2.719v9.88h-4.412V34.116a5.631,5.631,0,0,0-.622-2.967,2.406,2.406,0,0,0-2.206-.979,3.057,3.057,0,0,0-2.61,1.072,5.96,5.96,0,0,0-.808,3.527v8.42H607.06V21Z" transform="translate(-442.548 -15.312)" fill="#fff"></path><path id="Path_10" data-name="Path 10" d="M360.855,122v8.513h8.98V122h4.878v22.184h-4.878v-9.57h-8.98v9.57h-4.878V122Z" transform="translate(-259.508 -88.941)" fill="#fff"></path><path id="Path_11" data-name="Path 11" d="M437.189,148.36a5.122,5.122,0,0,1,.777-2.579,5.283,5.283,0,0,1,1.74-1.647,7.581,7.581,0,0,1,2.377-.886,13.543,13.543,0,0,1,2.657-.264,18.073,18.073,0,0,1,2.455.171,7.527,7.527,0,0,1,2.268.668,4.473,4.473,0,0,1,1.678,1.383,3.863,3.863,0,0,1,.653,2.346v8.358a16.772,16.772,0,0,0,.124,2.082,3.75,3.75,0,0,0,.435,1.491h-4.474a6.2,6.2,0,0,1-.2-.761,6.6,6.6,0,0,1-.109-.792,5.751,5.751,0,0,1-2.485,1.523,9.989,9.989,0,0,1-2.921.435,7.9,7.9,0,0,1-2.144-.279,4.908,4.908,0,0,1-1.74-.87,4.046,4.046,0,0,1-1.165-1.491,5.042,5.042,0,0,1-.419-2.144,4.678,4.678,0,0,1,.482-2.253,4.026,4.026,0,0,1,1.243-1.414,5.576,5.576,0,0,1,1.74-.792,18.652,18.652,0,0,1,1.973-.42q.994-.155,1.957-.249a11.789,11.789,0,0,0,1.709-.279,2.981,2.981,0,0,0,1.181-.544,1.194,1.194,0,0,0,.4-1.041,2.344,2.344,0,0,0-.233-1.134,1.717,1.717,0,0,0-.622-.652,2.447,2.447,0,0,0-.9-.311,7.416,7.416,0,0,0-1.1-.077,3.349,3.349,0,0,0-2.051.559,2.494,2.494,0,0,0-.87,1.864Zm10.191,3.263a1.97,1.97,0,0,1-.7.388,7.131,7.131,0,0,1-.9.233q-.482.093-1.01.156t-1.056.155a8,8,0,0,0-.979.249,2.9,2.9,0,0,0-.839.419,1.99,1.99,0,0,0-.575.668,2.147,2.147,0,0,0-.218,1.025,2.07,2.07,0,0,0,.218.994,1.663,1.663,0,0,0,.59.637,2.5,2.5,0,0,0,.87.326,5.558,5.558,0,0,0,1.025.093,3.9,3.9,0,0,0,2.02-.435,2.917,2.917,0,0,0,1.056-1.041,3.337,3.337,0,0,0,.419-1.227,8.543,8.543,0,0,0,.078-.994Z" transform="translate(-318.349 -104.236)" fill="#fff"></path><path id="Path_12" data-name="Path 12" d="M509.646,143.421V145.6h.062a6.281,6.281,0,0,1,2.1-1.926,5.685,5.685,0,0,1,2.812-.683,6.471,6.471,0,0,1,2.781.59,3.906,3.906,0,0,1,1.911,2.082,6.841,6.841,0,0,1,1.942-1.864,5.164,5.164,0,0,1,2.905-.808,8.571,8.571,0,0,1,2.361.311,4.761,4.761,0,0,1,1.865.994,4.566,4.566,0,0,1,1.211,1.787,7.246,7.246,0,0,1,.435,2.656v10.75h-4.412v-9.1q0-.808-.062-1.522a3.235,3.235,0,0,0-.342-1.243,2.07,2.07,0,0,0-.823-.839,2.982,2.982,0,0,0-1.476-.311,2.827,2.827,0,0,0-1.507.357,2.588,2.588,0,0,0-.9.932,3.731,3.731,0,0,0-.435,1.305,9.951,9.951,0,0,0-.109,1.476v8.948h-4.412v-9.01q0-.714-.031-1.414a3.967,3.967,0,0,0-.264-1.29,1.986,1.986,0,0,0-.777-.948,2.936,2.936,0,0,0-1.6-.357,3.3,3.3,0,0,0-.824.14,2.73,2.73,0,0,0-.994.528,3.084,3.084,0,0,0-.824,1.119,4.535,4.535,0,0,0-.342,1.911v9.321h-4.412V143.421Z" transform="translate(-368.497 -104.237)" fill="#fff"></path><path id="Path_13" data-name="Path 13" d="M613.093,143.421v2.051h.062a4.856,4.856,0,0,1,2.051-1.9,6.3,6.3,0,0,1,2.734-.59,6.963,6.963,0,0,1,3.263.714,6.751,6.751,0,0,1,2.268,1.9,8.017,8.017,0,0,1,1.336,2.75,12.217,12.217,0,0,1,.435,3.278,11.037,11.037,0,0,1-.435,3.107,7.905,7.905,0,0,1-1.321,2.641,6.529,6.529,0,0,1-2.206,1.833,6.641,6.641,0,0,1-3.092.684,6.253,6.253,0,0,1-2.75-.606,5.2,5.2,0,0,1-2.066-1.786h-.062v7.612H608.9V143.421Zm5.733,12.739a3.537,3.537,0,0,0,1.18-1.134,4.674,4.674,0,0,0,.637-1.631,9.658,9.658,0,0,0,.186-1.9,8.921,8.921,0,0,0-.2-1.895,5.062,5.062,0,0,0-.668-1.663,3.731,3.731,0,0,0-1.2-1.18,3.343,3.343,0,0,0-1.787-.451,3.4,3.4,0,0,0-1.818.451,3.625,3.625,0,0,0-1.181,1.165,4.837,4.837,0,0,0-.637,1.647,9.8,9.8,0,0,0-.187,1.926,8.911,8.911,0,0,0,.2,1.9,4.887,4.887,0,0,0,.653,1.631,3.766,3.766,0,0,0,4.816,1.134" transform="translate(-443.888 -104.237)" fill="#fff"></path><path id="Path_14" data-name="Path 14" d="M680.574,155.492a2.574,2.574,0,0,0,.761.839,3.261,3.261,0,0,0,1.072.482,5.021,5.021,0,0,0,1.258.155,4.716,4.716,0,0,0,.979-.109,3.33,3.33,0,0,0,.932-.342,2.117,2.117,0,0,0,.7-.621,1.63,1.63,0,0,0,.28-.979q0-.994-1.321-1.492a26.465,26.465,0,0,0-3.682-.994q-.963-.217-1.88-.513a6.408,6.408,0,0,1-1.631-.777,3.767,3.767,0,0,1-1.15-1.212,3.43,3.43,0,0,1-.435-1.786,4.836,4.836,0,0,1,.606-2.548,4.467,4.467,0,0,1,1.6-1.569,7.029,7.029,0,0,1,2.237-.808,13.8,13.8,0,0,1,2.548-.233,12.738,12.738,0,0,1,2.532.249,6.71,6.71,0,0,1,2.19.839,5.04,5.04,0,0,1,1.6,1.569,5.279,5.279,0,0,1,.761,2.47h-4.195a1.931,1.931,0,0,0-.963-1.724,4.409,4.409,0,0,0-2.051-.451,7.594,7.594,0,0,0-.808.047,2.688,2.688,0,0,0-.792.2,1.634,1.634,0,0,0-.606.45,1.191,1.191,0,0,0-.248.792,1.209,1.209,0,0,0,.435.963,3.359,3.359,0,0,0,1.134.606,14.143,14.143,0,0,0,1.6.419q.9.187,1.833.4a18.76,18.76,0,0,1,1.88.528,6.205,6.205,0,0,1,1.631.823,3.993,3.993,0,0,1,1.15,1.274,3.743,3.743,0,0,1,.435,1.88,4.878,4.878,0,0,1-2.3,4.381,6.8,6.8,0,0,1-2.346.917,13.71,13.71,0,0,1-2.688.264,13.312,13.312,0,0,1-2.734-.28,7.212,7.212,0,0,1-2.377-.932,5.327,5.327,0,0,1-1.709-1.724,5.394,5.394,0,0,1-.73-2.688h4.194a2.414,2.414,0,0,0,.3,1.227" transform="translate(-492.866 -104.237)" fill="#fff"></path><path id="Path_15" data-name="Path 15" d="M744.929,122v8.358h.093a5.11,5.11,0,0,1,2.144-2.035,5.791,5.791,0,0,1,2.548-.637,7.5,7.5,0,0,1,2.905.482,4.314,4.314,0,0,1,1.787,1.336,5.183,5.183,0,0,1,.916,2.082,12.975,12.975,0,0,1,.264,2.719v9.88h-4.412v-9.072a5.631,5.631,0,0,0-.622-2.967,2.406,2.406,0,0,0-2.206-.979,3.057,3.057,0,0,0-2.61,1.072,5.959,5.959,0,0,0-.808,3.527v8.42h-4.412V122Z" transform="translate(-539.838 -88.941)" fill="#fff"></path><path id="Path_16" data-name="Path 16" d="M808.962,122h4.412v3.635h-4.412Zm4.412,22.184h-4.412V128.125h4.412Z" transform="translate(-589.735 -88.941)" fill="#fff"></path><path id="Path_17" data-name="Path 17" d="M842.279,143.421V146.4h.062a5.419,5.419,0,0,1,.839-1.383,5.494,5.494,0,0,1,1.212-1.087,5.939,5.939,0,0,1,1.46-.7,5.27,5.27,0,0,1,1.615-.249,3.447,3.447,0,0,1,.963.155v4.1q-.311-.062-.746-.109a7.861,7.861,0,0,0-.839-.047,4.7,4.7,0,0,0-2.051.4,3.556,3.556,0,0,0-1.352,1.1,4.429,4.429,0,0,0-.73,1.631,8.886,8.886,0,0,0-.217,2.02v7.239h-4.412V143.421Z" transform="translate(-610.965 -104.237)" fill="#fff"></path><path id="Path_18" data-name="Path 18" d="M883.254,155.631a4.524,4.524,0,0,0,5.158.3,2.773,2.773,0,0,0,1.181-1.414h3.884a7.374,7.374,0,0,1-2.858,4.132,8.416,8.416,0,0,1-4.661,1.243,9.174,9.174,0,0,1-3.418-.606,7.1,7.1,0,0,1-2.579-1.725,7.756,7.756,0,0,1-1.631-2.672,9.774,9.774,0,0,1-.575-3.418,9.368,9.368,0,0,1,.59-3.356,7.768,7.768,0,0,1,4.273-4.474,8.318,8.318,0,0,1,3.34-.653,7.639,7.639,0,0,1,3.573.792,7.14,7.14,0,0,1,2.5,2.128,8.749,8.749,0,0,1,1.414,3.045,11.364,11.364,0,0,1,.311,3.573H882.167a4.456,4.456,0,0,0,1.087,3.107m4.987-8.451a3.1,3.1,0,0,0-2.408-.87,3.84,3.84,0,0,0-1.755.357,3.351,3.351,0,0,0-1.119.885,3.254,3.254,0,0,0-.59,1.119,5.012,5.012,0,0,0-.2,1.056h7.177a5.1,5.1,0,0,0-1.1-2.548" transform="translate(-639.885 -104.236)" fill="#fff"></path><path id="Path_19" data-name="Path 19" d="M368.781,226.178a6.268,6.268,0,0,0-1.553-1.693,6.934,6.934,0,0,0-2.02-1.041,7.471,7.471,0,0,0-2.315-.357,8,8,0,0,0-3.791.839,7.507,7.507,0,0,0-2.594,2.222,9.575,9.575,0,0,0-1.492,3.122,13.448,13.448,0,0,0,0,7.131,9.548,9.548,0,0,0,1.492,3.138,7.5,7.5,0,0,0,2.594,2.222,8,8,0,0,0,3.791.839,6.743,6.743,0,0,0,2.8-.56,6.629,6.629,0,0,0,2.144-1.522,7.812,7.812,0,0,0,1.46-2.253,9.378,9.378,0,0,0,.714-2.781h2.113a11.965,11.965,0,0,1-.963,3.7,9.073,9.073,0,0,1-1.926,2.8,8.188,8.188,0,0,1-2.781,1.771,9.763,9.763,0,0,1-3.557.621,10.476,10.476,0,0,1-4.583-.948,9.507,9.507,0,0,1-3.278-2.532,10.757,10.757,0,0,1-1.957-3.666,15.033,15.033,0,0,1,0-8.762,10.937,10.937,0,0,1,1.957-3.682,9.43,9.43,0,0,1,3.278-2.548,11.1,11.1,0,0,1,7.674-.482,8.963,8.963,0,0,1,2.734,1.383,8.068,8.068,0,0,1,2.051,2.253,7.588,7.588,0,0,1,1.041,3.076H369.7a7.112,7.112,0,0,0-.916-2.284" transform="translate(-256.916 -161.316)" fill="#fff"></path><path id="Path_20" data-name="Path 20" d="M443.507,244.669a7.083,7.083,0,0,1,2.377,1.833,7.946,7.946,0,0,1,1.46,2.688,11.059,11.059,0,0,1,0,6.556,7.941,7.941,0,0,1-1.46,2.688,6.9,6.9,0,0,1-2.377,1.818,8.225,8.225,0,0,1-6.494,0,6.892,6.892,0,0,1-2.377-1.818,7.926,7.926,0,0,1-1.46-2.688,11.059,11.059,0,0,1,0-6.556,7.931,7.931,0,0,1,1.46-2.687,7.071,7.071,0,0,1,2.377-1.833,8.051,8.051,0,0,1,6.494,0m-5.7,1.553a5.393,5.393,0,0,0-1.756,1.554,7.055,7.055,0,0,0-1.056,2.19,8.937,8.937,0,0,0,0,5,7.037,7.037,0,0,0,1.056,2.19,5.38,5.38,0,0,0,1.756,1.554,5.4,5.4,0,0,0,4.909,0,5.384,5.384,0,0,0,1.756-1.554,7.042,7.042,0,0,0,1.056-2.19,8.922,8.922,0,0,0,0-5,7.06,7.06,0,0,0-1.056-2.19,5.4,5.4,0,0,0-1.756-1.554,5.4,5.4,0,0,0-4.909,0" transform="translate(-315.424 -177.865)" fill="#fff"></path><rect id="Rectangle_9" data-name="Rectangle 9" width="1.957" height="22.184" transform="translate(135.369 60.434)" fill="#fff"></rect><rect id="Rectangle_10" data-name="Rectangle 10" width="1.957" height="22.184" transform="translate(141.117 60.434)" fill="#fff"></rect><path id="Path_21" data-name="Path 21" d="M541.1,255.186a6.011,6.011,0,0,0,.947,2.035,5.408,5.408,0,0,0,1.647,1.491,4.6,4.6,0,0,0,2.392.591,4.759,4.759,0,0,0,3.356-1.119,5.887,5.887,0,0,0,1.678-2.983h1.957a7.822,7.822,0,0,1-2.284,4.226,6.811,6.811,0,0,1-4.707,1.492,7.467,7.467,0,0,1-3.278-.668,6.028,6.028,0,0,1-2.253-1.833,7.966,7.966,0,0,1-1.289-2.7,12.288,12.288,0,0,1-.419-3.247,11.646,11.646,0,0,1,.419-3.107,8.339,8.339,0,0,1,1.289-2.719,6.472,6.472,0,0,1,2.253-1.926,6.932,6.932,0,0,1,3.278-.73A6.339,6.339,0,0,1,551.6,246.8a8.435,8.435,0,0,1,1.228,2.89,12.684,12.684,0,0,1,.311,3.309H540.805a8.665,8.665,0,0,0,.3,2.19m9.694-5.981a5.869,5.869,0,0,0-1.01-1.818,5.006,5.006,0,0,0-1.584-1.274,4.538,4.538,0,0,0-2.113-.482,4.607,4.607,0,0,0-2.144.482,5.013,5.013,0,0,0-1.585,1.274,6.352,6.352,0,0,0-1.041,1.833,8.956,8.956,0,0,0-.512,2.128h10.378a7.09,7.09,0,0,0-.388-2.144" transform="translate(-392.821 -177.865)" fill="#fff"></path><path id="Path_22" data-name="Path 22" d="M612.319,262.38a6.243,6.243,0,0,1-1.227,2.423,5.358,5.358,0,0,1-2.19,1.522,9.124,9.124,0,0,1-3.309.528,9.94,9.94,0,0,1-2.362-.28,6.714,6.714,0,0,1-2.066-.87,5.148,5.148,0,0,1-1.522-1.507,4.5,4.5,0,0,1-.7-2.19H600.9a3.472,3.472,0,0,0,.606,1.507,3.624,3.624,0,0,0,1.088.979,4.836,4.836,0,0,0,1.414.544,7.375,7.375,0,0,0,1.585.171,4.7,4.7,0,0,0,3.946-1.553,7.149,7.149,0,0,0,1.212-4.474V257h-.062a5.724,5.724,0,0,1-2,2.392,5.349,5.349,0,0,1-3.091.9,7.745,7.745,0,0,1-3.293-.637,6.113,6.113,0,0,1-2.253-1.756,7.159,7.159,0,0,1-1.289-2.625,12.371,12.371,0,0,1-.4-3.216,9.988,9.988,0,0,1,.482-3.122,7.741,7.741,0,0,1,1.4-2.579,6.52,6.52,0,0,1,2.268-1.74,7.178,7.178,0,0,1,3.092-.637,5.632,5.632,0,0,1,1.693.249,5.354,5.354,0,0,1,1.445.7,6.221,6.221,0,0,1,1.165,1.041,4.757,4.757,0,0,1,.792,1.243h.062v-2.765h1.958V259.18a12.211,12.211,0,0,1-.389,3.2m-4.49-4.272a5.1,5.1,0,0,0,1.616-1.429,6.288,6.288,0,0,0,.979-2.035,8.6,8.6,0,0,0,.326-2.361,10.206,10.206,0,0,0-.28-2.361,6.819,6.819,0,0,0-.9-2.144,4.887,4.887,0,0,0-1.6-1.554,4.522,4.522,0,0,0-2.377-.59,4.7,4.7,0,0,0-2.392.575,5.1,5.1,0,0,0-1.647,1.507,6.306,6.306,0,0,0-.947,2.128,10.122,10.122,0,0,0-.3,2.439,9.014,9.014,0,0,0,.311,2.361,6.057,6.057,0,0,0,.963,2.035,4.988,4.988,0,0,0,1.647,1.429,4.85,4.85,0,0,0,2.362.544,4.474,4.474,0,0,0,2.237-.544" transform="translate(-436.2 -177.866)" fill="#fff"></path><path id="Path_23" data-name="Path 23" d="M664.353,255.186a6.011,6.011,0,0,0,.947,2.035,5.409,5.409,0,0,0,1.647,1.491,4.6,4.6,0,0,0,2.392.591,4.759,4.759,0,0,0,3.356-1.119,5.888,5.888,0,0,0,1.678-2.983h1.957a7.823,7.823,0,0,1-2.284,4.226,6.811,6.811,0,0,1-4.707,1.492,7.466,7.466,0,0,1-3.278-.668,6.028,6.028,0,0,1-2.253-1.833,7.965,7.965,0,0,1-1.289-2.7,12.288,12.288,0,0,1-.42-3.247,11.647,11.647,0,0,1,.42-3.107,8.338,8.338,0,0,1,1.289-2.719,6.472,6.472,0,0,1,2.253-1.926,6.932,6.932,0,0,1,3.278-.73,6.339,6.339,0,0,1,5.515,2.812,8.439,8.439,0,0,1,1.228,2.89,12.682,12.682,0,0,1,.311,3.309H664.057a8.662,8.662,0,0,0,.3,2.19m9.694-5.981a5.872,5.872,0,0,0-1.01-1.818,5.005,5.005,0,0,0-1.585-1.274,4.538,4.538,0,0,0-2.113-.482,4.607,4.607,0,0,0-2.144.482,5.012,5.012,0,0,0-1.585,1.274,6.348,6.348,0,0,0-1.041,1.833,8.958,8.958,0,0,0-.512,2.128h10.378a7.1,7.1,0,0,0-.388-2.144" transform="translate(-482.672 -177.865)" fill="#fff"></path><path id="Path_24" data-name="Path 24" d="M772.423,243.935l-.28-4.039h-.062a7.5,7.5,0,0,1-3.2,3.434,7.976,7.976,0,0,1-2.128.792,10.921,10.921,0,0,1-2.346.249,10.473,10.473,0,0,1-4.583-.948,9.51,9.51,0,0,1-3.278-2.532,10.772,10.772,0,0,1-1.957-3.666,15.031,15.031,0,0,1,0-8.762,10.951,10.951,0,0,1,1.957-3.682,9.433,9.433,0,0,1,3.278-2.548,10.469,10.469,0,0,1,4.583-.948,11.4,11.4,0,0,1,3.294.466,8.3,8.3,0,0,1,4.816,3.7,8.913,8.913,0,0,1,1.15,3.2h-2.113a4.991,4.991,0,0,0-.637-1.942,6.765,6.765,0,0,0-1.46-1.787,7.525,7.525,0,0,0-5.049-1.833,8,8,0,0,0-3.791.839,7.514,7.514,0,0,0-2.594,2.221,9.572,9.572,0,0,0-1.491,3.123,13.438,13.438,0,0,0,0,7.131,9.538,9.538,0,0,0,1.491,3.138,7.509,7.509,0,0,0,2.594,2.222,8,8,0,0,0,3.791.839,8.412,8.412,0,0,0,3.278-.606,6.839,6.839,0,0,0,2.439-1.693,7.1,7.1,0,0,0,1.491-2.579,9.73,9.73,0,0,0,.466-3.262h-7.55v-1.8h9.415v11.279Z" transform="translate(-549.621 -161.316)" fill="#fff"></path><path id="Path_25" data-name="Path 25" d="M843.218,245.1v3.76h.062a6.153,6.153,0,0,1,2.315-3.014,6.063,6.063,0,0,1,3.744-.963v1.958a5.91,5.91,0,0,0-2.423.357,5.458,5.458,0,0,0-1.88,1.2,5.4,5.4,0,0,0-1.227,1.849,6.169,6.169,0,0,0-.435,2.346v8.544h-1.957V245.1Z" transform="translate(-613.394 -178.514)" fill="#fff"></path><path id="Path_26" data-name="Path 26" d="M883.315,244.669a7.084,7.084,0,0,1,2.377,1.833,7.946,7.946,0,0,1,1.46,2.688,11.059,11.059,0,0,1,0,6.556,7.941,7.941,0,0,1-1.46,2.688,6.9,6.9,0,0,1-2.377,1.818,8.225,8.225,0,0,1-6.494,0,6.892,6.892,0,0,1-2.377-1.818,7.926,7.926,0,0,1-1.46-2.688,11.059,11.059,0,0,1,0-6.556,7.931,7.931,0,0,1,1.46-2.687,7.07,7.07,0,0,1,2.377-1.833,8.051,8.051,0,0,1,6.494,0m-5.7,1.553a5.393,5.393,0,0,0-1.755,1.554,7.055,7.055,0,0,0-1.056,2.19,8.937,8.937,0,0,0,0,5,7.037,7.037,0,0,0,1.056,2.19,5.38,5.38,0,0,0,1.755,1.554,5.4,5.4,0,0,0,4.909,0,5.384,5.384,0,0,0,1.756-1.554,7.042,7.042,0,0,0,1.056-2.19,8.921,8.921,0,0,0,0-5,7.06,7.06,0,0,0-1.056-2.19,5.4,5.4,0,0,0-1.756-1.554,5.4,5.4,0,0,0-4.909,0" transform="translate(-636.044 -177.865)" fill="#fff"></path><path id="Path_27" data-name="Path 27" d="M950.317,261.738v-2.89h-.062a5.556,5.556,0,0,1-2.253,2.47,6.425,6.425,0,0,1-3.278.854,7.136,7.136,0,0,1-2.594-.419,4.322,4.322,0,0,1-1.74-1.2,4.844,4.844,0,0,1-.979-1.9,9.525,9.525,0,0,1-.311-2.548V245.7h1.957v10.44a5.216,5.216,0,0,0,1.01,3.294,5.049,5.049,0,0,0,5.453.575,4.62,4.62,0,0,0,1.492-1.445,6.515,6.515,0,0,0,.87-2.066,10.149,10.149,0,0,0,.28-2.377V245.7h1.957v16.033Z" transform="translate(-684.606 -179.119)" fill="#fff"></path><path id="Path_28" data-name="Path 28" d="M1002.583,244.451V247.5h.062a5.238,5.238,0,0,1,2.222-2.595,6.7,6.7,0,0,1,3.5-.917,6.977,6.977,0,0,1,3.185.684,6.541,6.541,0,0,1,2.253,1.849,7.875,7.875,0,0,1,1.336,2.7,12.328,12.328,0,0,1,0,6.494,7.874,7.874,0,0,1-1.336,2.7,6.376,6.376,0,0,1-2.253,1.833,7.6,7.6,0,0,1-4.925.451,6.146,6.146,0,0,1-1.616-.653,5.312,5.312,0,0,1-1.32-1.088,4.611,4.611,0,0,1-.886-1.522h-.062v8.948h-1.958V244.451ZM1013.318,250a6.854,6.854,0,0,0-.932-2.19,5.142,5.142,0,0,0-1.631-1.569,4.514,4.514,0,0,0-2.392-.606,5.869,5.869,0,0,0-2.7.559,4.707,4.707,0,0,0-1.74,1.491,5.87,5.87,0,0,0-.916,2.175,12.51,12.51,0,0,0-.264,2.61,10.494,10.494,0,0,0,.3,2.47,6.428,6.428,0,0,0,.963,2.19,5.184,5.184,0,0,0,1.74,1.569,5.263,5.263,0,0,0,2.626.606,4.511,4.511,0,0,0,2.392-.606,5.137,5.137,0,0,0,1.631-1.569,6.844,6.844,0,0,0,.932-2.19,10.485,10.485,0,0,0,0-4.94" transform="translate(-729.571 -177.865)" fill="#fff"></path></g></g></g></g></svg>